# xmcd
# 
# Track frame offsets:
#     150
#     19680
#     36667
#     54202
#     70987
#     78542
#     93935
#     111750
#     129097
#     143835
#     156652
#     182745
# 
# Disc length: 2629
# 
# Revision: 2
# Processed by: cddbd v1.5.2PL0 Copyright (c) Steve Scherf et al.
# Submitted via: fre:ac v1.1beta1pre5
# 
DISCID=a00a430c
DTITLE=オフコース - SONG IS LOVE
DYEAR=1976
DGENRE=JPop
TTITLE0=ランナウェイ
TTITLE1=ピロートーク
TTITLE2=こころは気紛れ
TTITLE3=ひとりで生きてゆければ
TTITLE4=ひとりよがり
TTITLE5=青春
TTITLE6=めぐる季節
TTITLE7=おもい違い
TTITLE8=青空と人生と
TTITLE9=恋はさりげなく
TTITLE10=冬が来るまえに
TTITLE11=歌を捧げて
EXTD=4作目のオリジナルアルバム
EXTT0=シングル「めぐる季節／ランナウェイ」より (1976年)
EXTT1=
EXTT2=シングル「こころは気紛れ／あなたがいれば」より (1977年)
EXTT3=シングル「ひとりで生きてゆければ／あいつの残したものは」より (1976年)
EXTT4=
EXTT5=
EXTT6=シングル「めぐる季節／ランナウェイ」より (1976年)
EXTT7=
EXTT8=
EXTT9=
EXTT10=
EXTT11=
PLAYORDER=
